<?xml version="1.0" encoding="UTF-8"?>
<!DOCTYPE svg PUBLIC "-//W3C//DTD SVG 1.1//EN" "http://www.w3.org/Graphics/SVG/1.1/DTD/svg11.dtd">
<!-- Creator: CorelDRAW 2020 (64-Bit) -->
<svg xmlns="http://www.w3.org/2000/svg" xml:space="preserve" width="816px" height="1056px" version="1.1" style="shape-rendering:geometricPrecision; text-rendering:geometricPrecision; image-rendering:optimizeQuality; fill-rule:evenodd; clip-rule:evenodd"
viewBox="0 0 816 1056"
 xmlns:xlink="http://www.w3.org/1999/xlink"
 xmlns:xodm="http://www.corel.com/coreldraw/odm/2003">
 <defs>
  <style type="text/css">
   <![CDATA[
    .fil0 {fill:black}
   ]]>
  </style>
 </defs>
 <g id="Capa_x0020_1">
  <metadata id="CorelCorpID_0Corel-Layer"/>
  <path class="fil0" d="M314.417 967.342c239.824,-3.32 433.222,-198.73 433.222,-439.342 0,-240.612 -193.398,-436.022 -433.222,-439.342 -81.736,-1.134 -164.235,-0.079 -246.056,-0.079l0 80.591c81.208,0 162.89,-0.873 244.039,0.053 86.029,2.218 155.086,72.651 155.086,159.214 0,87.962 -71.306,159.268 -159.267,159.268l0 -77.674 0 -80.287 -80.287 0 -79.284 0 0 -80.287 -80.287 0 0 80.287 0 80.287 0 396.513 80.287 0 0 -396.513 79.284 0 0 316.226 80.287 0 0 -157.962c87.961,0 159.267,71.306 159.267,159.268 0,86.563 -69.057,156.996 -155.086,159.214 -81.149,0.926 -162.831,0.054 -244.039,0.054l0 80.59c81.821,0 164.32,1.055 246.056,-0.079zm126.891 -439.342c64.369,-43.014 106.768,-116.333 106.768,-199.563 0,-27.532 -4.653,-53.975 -13.191,-78.602 80.652,65.799 132.163,165.961 132.163,278.165 0,112.204 -51.511,212.366 -132.163,278.165 8.538,-24.627 13.191,-51.07 13.191,-78.602 0,-83.23 -42.399,-156.549 -106.768,-199.563z"/>
 </g>
</svg>
